<?xml version="1.0" standalone="no"?>
<!DOCTYPE svg PUBLIC "-//W3C//DTD SVG 20010904//EN"
 "http://www.w3.org/TR/2001/REC-SVG-20010904/DTD/svg10.dtd">
<svg version="1.0" xmlns="http://www.w3.org/2000/svg"
 width="638.000000pt" height="482.000000pt" viewBox="0 0 638.000000 482.000000"
 preserveAspectRatio="xMidYMid meet">
<metadata>
Created by potrace 1.16, written by Peter Selinger 2001-2019
</metadata>
<g transform="translate(0.000000,482.000000) scale(0.100000,-0.100000)"
fill="#000000" stroke="none">
<path d="M777 4502 c-15 -39 -32 -105 -37 -151 -8 -74 -7 -89 17 -169 28 -95
41 -160 37 -189 -1 -10 -6 -54 -10 -98 -4 -44 -8 -82 -9 -85 -8 -31 -17 -257
-17 -421 0 -246 7 -314 37 -394 12 -33 29 -76 36 -95 27 -71 156 -222 241
-281 18 -13 35 -26 38 -29 19 -25 171 -113 280 -163 150 -70 383 -117 573
-117 75 0 259 31 295 49 9 5 51 26 92 46 82 41 125 72 212 152 56 50 158 166
158 178 0 3 18 30 40 59 88 117 175 300 235 499 23 75 34 97 74 138 l47 49 91
0 c77 0 95 -3 123 -22 44 -30 116 -147 140 -228 11 -36 38 -102 60 -148 22
-46 40 -89 40 -95 0 -16 114 -212 151 -258 16 -20 29 -41 29 -46 0 -8 109
-116 181 -179 54 -47 199 -127 264 -145 17 -4 55 -15 85 -24 259 -75 566 -52
818 61 29 13 57 24 62 24 6 0 10 5 10 10 0 6 7 10 15 10 18 0 51 18 79 43 11
9 26 17 33 17 7 0 13 5 13 10 0 6 5 10 11 10 21 0 219 177 219 196 0 7 4 14 8
16 17 7 64 79 103 158 47 97 64 146 75 215 4 28 8 55 10 62 20 102 19 382 -2
503 -2 14 -7 104 -11 201 -7 198 3 277 43 340 30 49 30 53 -5 142 -16 41 -32
91 -36 113 -13 78 -24 94 -64 94 -20 0 -54 -5 -76 -10 -22 -5 -132 -14 -245
-20 -422 -22 -671 -53 -845 -105 -49 -15 -108 -32 -130 -37 -22 -6 -44 -15
-50 -19 -5 -5 -15 -9 -22 -9 -8 0 -33 -9 -55 -20 -23 -11 -46 -20 -50 -20 -5
0 -28 -9 -50 -20 -23 -11 -45 -20 -50 -20 -5 0 -30 -10 -56 -21 -134 -60 -180
-82 -215 -100 -22 -10 -45 -19 -52 -19 -7 0 -15 -3 -17 -7 -1 -5 -41 -27 -88
-51 -47 -24 -94 -48 -105 -55 -29 -18 -180 -116 -244 -160 -82 -55 -127 -77
-158 -77 -29 0 -111 50 -198 120 -27 22 -71 54 -97 71 -27 17 -48 35 -48 40 0
5 -5 9 -11 9 -7 0 -32 15 -58 33 -25 17 -59 39 -76 47 -16 8 -32 17 -35 20
-11 12 -160 80 -174 80 -9 0 -16 5 -16 10 0 6 -7 10 -15 10 -8 0 -23 4 -33 9
-92 48 -346 130 -572 186 -174 42 -229 51 -435 70 -331 31 -457 46 -555 70
-23 5 -27 1 -53 -63z m4505 -167 c74 -24 142 -76 189 -144 35 -52 54 -103 78
-213 6 -27 15 -67 21 -90 14 -61 28 -152 36 -233 3 -38 8 -83 10 -100 5 -42 6
-344 0 -353 -2 -4 -7 -29 -10 -56 -4 -27 -18 -81 -32 -120 -14 -39 -28 -80
-31 -91 -9 -32 -104 -163 -153 -211 -51 -48 -136 -110 -190 -137 -19 -10 -42
-22 -50 -27 -103 -65 -349 -128 -525 -135 -177 -6 -392 38 -487 101 -21 13
-42 24 -47 24 -5 0 -16 6 -23 13 -7 7 -33 28 -58 47 -24 19 -56 46 -71 60 -35
33 -159 183 -159 192 0 4 -16 29 -37 55 -20 27 -45 68 -56 93 -11 25 -28 57
-39 72 -10 15 -27 52 -38 83 -10 30 -25 68 -33 83 -8 15 -24 56 -36 92 -47
141 -53 172 -48 265 4 79 9 99 41 163 54 106 156 212 271 282 22 13 42 27 45
30 11 14 239 118 300 137 204 64 346 93 555 117 77 9 156 18 175 20 19 2 105
3 190 2 120 -2 168 -6 212 -21z m-3660 -7 c35 -5 143 -22 242 -39 98 -16 188
-27 200 -23 11 4 17 3 13 -2 -10 -11 132 -45 158 -38 16 4 17 3 5 -5 -13 -9
-13 -11 0 -11 21 0 145 -49 205 -81 220 -116 349 -230 442 -390 17 -31 24 -62
39 -174 1 -11 -4 -62 -11 -114 -11 -71 -24 -115 -54 -178 -23 -47 -41 -90 -41
-97 0 -7 -22 -50 -50 -95 -27 -45 -50 -86 -50 -91 0 -5 -20 -39 -45 -76 -25
-36 -45 -70 -45 -74 0 -14 -161 -179 -208 -214 -166 -121 -357 -177 -583 -169
-140 5 -401 78 -509 143 -8 5 -36 22 -62 36 -27 15 -48 31 -48 36 0 4 -4 8
-10 8 -22 0 -168 140 -188 180 -7 14 -26 47 -42 73 -31 49 -37 68 -70 212 -28
121 -19 464 16 617 3 13 9 50 13 83 15 111 42 193 108 332 31 64 125 130 218
154 40 10 278 8 357 -3z"/>
<path d="M4143 3531 c-166 -42 -269 -233 -234 -438 34 -197 210 -320 376 -264
93 32 182 156 206 287 27 148 -68 346 -191 398 -46 19 -117 27 -157 17z"/>
<path d="M2083 3561 c-85 -22 -161 -90 -211 -191 -24 -50 -27 -66 -27 -165 0
-99 3 -115 27 -165 60 -121 155 -193 257 -194 79 0 127 19 187 76 88 83 136
224 115 340 -22 124 -104 245 -191 282 -46 19 -117 27 -157 17z"/>
<path d="M2609 1794 c-36 -7 -95 -24 -130 -39 -60 -24 -218 -110 -229 -124 -3
-4 -21 -18 -40 -31 -19 -12 -39 -28 -45 -34 -5 -6 -30 -27 -54 -46 -25 -19
-54 -44 -66 -55 -11 -11 -70 -65 -129 -120 -60 -55 -123 -113 -140 -130 -206
-195 -453 -341 -643 -380 -95 -20 -155 -13 -211 24 -54 36 -75 64 -97 136 -28
89 -25 153 8 204 32 48 72 69 191 96 92 22 138 53 120 82 -6 10 -40 29 -75 41
-125 46 -268 11 -371 -90 -215 -212 -245 -529 -72 -754 30 -40 65 -79 78 -87
13 -9 29 -22 37 -29 56 -55 258 -161 384 -201 429 -138 998 -154 1462 -42 122
29 166 43 243 77 60 27 165 92 175 108 13 20 114 90 152 104 88 33 98 31 189
-35 154 -111 319 -183 554 -243 269 -68 598 -97 880 -78 357 25 610 91 835
217 119 67 249 195 294 290 74 157 80 309 17 436 -9 18 -16 38 -16 45 0 22
-115 168 -166 210 -114 96 -228 126 -316 85 -57 -27 -78 -50 -81 -87 -2 -31 0
-31 183 -74 79 -19 94 -27 123 -73 53 -82 26 -184 -75 -281 -28 -27 -76 -60
-106 -73 -46 -22 -64 -25 -121 -20 -125 10 -218 63 -432 247 -41 36 -99 85
-129 110 -29 25 -95 81 -145 125 -50 44 -114 98 -140 120 -27 22 -63 52 -79
66 -17 14 -47 36 -66 49 -19 13 -37 27 -40 31 -6 8 -83 55 -175 107 -182 102
-366 143 -544 122 -109 -14 -217 -46 -314 -96 -38 -18 -75 -34 -83 -34 -8 0
-49 18 -92 39 -181 92 -337 119 -503 85z"/>
</g>
</svg>
