<?xml version="1.0" encoding="UTF-8"?>
<!DOCTYPE svg PUBLIC "-//W3C//DTD SVG 1.1//EN" "http://www.w3.org/Graphics/SVG/1.1/DTD/svg11.dtd">
<!-- Creator: CorelDRAW 2019 (64-Bit) -->
<svg xmlns="http://www.w3.org/2000/svg" xml:space="preserve" width="1024px" height="1024px" version="1.1" style="shape-rendering:geometricPrecision; text-rendering:geometricPrecision; image-rendering:optimizeQuality; fill-rule:evenodd; clip-rule:evenodd"
viewBox="0 0 1024 1024"
 xmlns:xlink="http://www.w3.org/1999/xlink">
 <defs>
  <style type="text/css">
   <![CDATA[
    .fil0 {fill:black}
    .fil1 {fill:black}
    .fil2 {fill:#FEFFFF}
   ]]>
  </style>
 </defs>
 <g id="Capa_x0020_1">
  <metadata id="CorelCorpID_0Corel-Layer"/>
  <g id="_2233756252464">
   <path class="fil0" d="M91.48 720.32c-48.5,0 -85.18,63.69 -85.18,123.23 0,120.9 143.07,173.45 246.27,173.45 64.01,0 105.8,-3.54 164.24,-25.79 32.54,-12.38 82.16,-72.94 103.6,-60.21 24.85,14.74 28.33,38.21 105.74,63.74 40.1,13.21 87.71,22.26 139.33,22.26 105.87,0 251.82,-47.73 251.82,-168.88 0,-62.59 -43.63,-130.08 -88.88,-130.08 -12.62,0 -26.71,13.88 -27.77,29.66 43.01,12.35 62.95,11.79 62.95,54.78 0,21.36 -27.58,59.33 -59.25,59.33 -44.31,0 -142.43,-122.93 -176.92,-156.23 -133.82,-129.2 -190.82,-37.75 -224.89,-37.75 -4.35,0 -45.78,-31.95 -85.17,-31.95 -86.87,0 -164.3,137.27 -226.1,184.61 -27.09,20.75 -109.45,76.21 -126.6,5.89 -9.74,-39.97 -2.58,-62.29 27.77,-70.64 52.04,-14.32 30.37,-35.42 -0.96,-35.42z"/>
   <path class="fil1" d="M698.82 483c-42.85,-11.68 -113.25,-111 -118.5,-159.78l-1.86 -6.84c-17.94,-25.44 -26.14,-88.2 -12.7,-127.48 8.87,-25.96 48.08,-70.72 70.1,-77.91l3.7 -2.37 1.86 -2.4 62.95 -27.4c25.91,-20.28 164.24,-34.18 196.7,-14.01 46.3,28.77 48.6,137.4 51.75,214.46 3.32,81.43 -24.05,141.37 -75.2,177.6 -35.62,25.23 -136.59,61.87 -178.8,26.13zm-324.04 -370.26l1.85 2.8 1.85 2.28c28.96,2.97 80.95,79.3 76.35,133.03 -2.96,34.58 -46.46,144.36 -61.53,156.81l-1.86 2.28 -1.85 4.57 -1.85 2.28 -1.85 2.28 -1.85 4.57 -1.85 2.28 -1.86 2.77 -14.81 15.42 -1.85 2.56 -3.7 2.3 -1.86 2.05 -1.85 2.27 -7.4 4.57 -1.86 2.63 -1.85 0 -1.85 1.94 -1.85 2.28 -1.85 0 -3.71 2.28 -1.85 0 -1.85 2.29c-33.61,36 -123.88,15.4 -163.1,-6.65 -51.66,-29.06 -82.4,-71.43 -91.45,-147.4 -6.8,-57.09 8.67,-183.33 27.44,-219.44 16.7,-32.12 35.57,-37.92 77.28,-37.35 13.11,0.18 82.28,9.52 90.58,16.03l101.84 38.27zm-98.14 409.03c91.97,0 149.13,-97.4 178.78,-185.89 8.25,-24.63 13.7,-81.12 41.57,-81.12l24.07 0c19.34,0 45.06,88.84 52.99,112.69 12.19,36.67 37.7,82.81 61.08,105.01 127.51,121.06 331.65,26.2 341.38,-172.28 2.63,-53.81 -4.45,-101.02 -6.13,-156.59 -1.09,-35.87 12.06,-55.74 12.63,-66.73 0.45,-8.79 -14.94,-54.73 -17.56,-68.58 -39.4,0 -97.19,9.66 -139.09,13.42 -79.54,7.15 -165.11,49.59 -232.43,92.37 -20.29,12.89 -86.69,69.94 -98.79,69.94 -10.52,0 -71.45,-59.87 -86.87,-70.95 -55.69,-40 -153.41,-79.45 -221.53,-87.55 -21.97,-2.61 -45.47,-4.47 -66.23,-7.54 -17.69,-2.62 -44.27,-10.3 -60.51,-11.97 -1.81,26.78 -19.91,48.25 -8.7,83.59 10.72,33.8 7.82,48.88 4.58,84.23 -2.42,26.33 -4.9,149.41 0.13,179.42 16.13,96.2 123.16,168.53 220.63,168.53z"/>
   <path class="fil2" d="M362.64 325.5c-13.14,117.21 -118.98,83.72 -109.86,-18.19 10.05,-112.12 120.99,-81.04 109.86,18.19zm-30.45 143.78l1.85 -2.29 1.85 0 3.71 -2.28 1.85 0 1.85 -2.28 1.85 -1.94 1.85 0 1.86 -2.63 7.4 -4.57 1.85 -2.27 1.86 -2.05 3.7 -2.3 1.85 -2.56 14.81 -15.42 1.86 -2.77 1.85 -2.28 1.85 -4.57 1.85 -2.28 1.85 -2.28 1.85 -4.57 1.86 -2.28c2.33,-10.78 18.08,-43.81 23.86,-66.44 5.67,-22.22 9.41,-55.45 7.22,-85.98 -4.96,-69.28 -21.75,-92.98 -45.9,-137.42l-1.85 -2.28 -1.85 -2.8 -101.84 -38.27c-68.48,6.89 -119.26,129.44 -107.04,236.9 5.63,49.49 25.95,97.26 50.06,125.44 39.4,46.08 58.03,38.44 116.23,32.47z"/>
   <path class="fil2" d="M744.42 330.07c-17.06,124.46 -117.14,81.91 -110.31,-13.7 8.39,-117.43 123.02,-79.05 110.31,13.7zm-103 -223.85l-1.86 2.4 -3.7 2.37c-18.06,33.16 -30.04,32.45 -45.5,83.12 -14.48,47.44 -11.9,66.08 -11.9,122.27l1.86 6.84c5.25,48.78 75.65,148.1 118.5,159.78 183.75,-1.04 183.13,-396.46 5.55,-404.18l-62.95 27.4z"/>
   <path class="fil0" d="M362.64 325.5c11.13,-99.23 -99.81,-130.31 -109.86,-18.19 -9.12,101.91 96.72,135.4 109.86,18.19z"/>
   <path class="fil0" d="M744.42 330.07c12.71,-92.75 -101.92,-131.13 -110.31,-13.7 -6.83,95.61 93.25,138.16 110.31,13.7z"/>
  </g>
 </g>
</svg>
